<svg xmlns:inkscape="http://www.inkscape.org/namespaces/inkscape" xmlns:sodipodi="http://sodipodi.sourceforge.net/DTD/sodipodi-0.dtd" xmlns="http://www.w3.org/2000/svg" xmlns:svg="http://www.w3.org/2000/svg" version="1.1" width="435.3191490245997" height="184.91489331636103" sodipodi:docname="디넷로고 (1).ai" style=""><rect id="backgroundrect" width="100%" height="100%" x="0" y="0" fill="none" stroke="none" class="" style=""/>
  <defs id="defs6">
    <clipPath clipPathUnits="userSpaceOnUse" id="clipPath16">
      <path d="M 0,841.89 H 595.28 V 0 H 0 Z" id="path14"/>
    </clipPath>
  </defs>
  <sodipodi:namedview id="namedview4" pagecolor="#ffffff" bordercolor="#000000" borderopacity="0.25" inkscape:showpageshadow="2" inkscape:pageopacity="0.0" inkscape:pagecheckerboard="0" inkscape:deskcolor="#d1d1d1"/>
  
<g class="currentLayer" style=""><title>Layer 1</title><g id="g8" inkscape:groupmode="layer" inkscape:label="디넷로고 (1)" class="">
    <g id="g10" stroke-width="0">
      <g id="g12" clip-path="url(#clipPath16)" stroke-width="0">
        <g id="g18" stroke-width="0">
          <path d="m5.4324047720177,19.145440968624833 h55.85180923905923 c11.007195337458711,0 19.90064269988819,1.4964201350568131 26.678160716829176,4.480534923333371 c6.777518016940988,2.9906588996543584 12.37709598587807,7.277051852113014 16.807459388648308,12.86572296875376 c4.4238192913924435,5.586489746181482 7.634796607432717,12.086973714795628 9.624206466283756,19.501451905842426 c1.9937725997695723,7.412296820587538 2.9884775291950922,15.269593214865434 2.9884775291950922,23.567526441915163 c0,13.000967937228282 -1.481150541841947,23.08544357041727 -4.439088884607308,30.249064158648423 c-2.9601197132246275,7.1658019586904205 -7.067640288023431,13.166752092132535 -12.324743094855673,18.007213141244883 c-5.257102806832243,4.84264241957161 -10.898126814495386,8.064526587908215 -16.927434763907968,9.667833875469086 c-8.245580336027334,2.2119096456962217 -15.714592788555798,3.3200458390035985 -22.407037357585395,3.3200458390035985 l-55.85180923905923,0 zm37.5937384949987,27.55289027099504 v66.4707206347685 h9.214108819941657 c7.852933653359367,0 13.441604770000113,-0.8703668132473302 16.76165060900371,-2.615463180660523 c3.3200458390035985,-1.738552256035393 5.920239426449255,-4.7837454171714135 7.798399391877704,-9.124672631111729 c1.8825227063469814,-4.34528995485885 2.822693374290839,-11.384572426911815 2.822693374290839,-21.12002878661816 c0,-12.89189941426496 -2.102841122732897,-21.715542921997912 -6.306341997739424,-26.475293264117393 c-4.203500875006528,-4.75538760120095 -11.175160862822231,-7.13526277226069 -20.912798592987848,-7.13526277226069 h-9.377711604386645 " style="fill:#00307c;fill-opacity:1;fill-rule:nonzero;stroke:none" id="path20" stroke-width="0"/>
        </g>
        <g id="g22" stroke-width="0">
          <path d="m134.89260253081738,52.67123031231231 h31.450999281704256 v14.35778036289204 c4.700853339719289,-5.863523794508325 9.462785052298036,-10.053936446759256 14.274888285439916,-12.573419327212054 c4.814284603601145,-2.515120139534263 10.675627027650204,-3.7781336354495623 17.592752753984243,-3.7781336354495623 c9.34935378841618,0 16.667851679255254,2.781247335564775 21.95113093159869,8.343742006694328 c5.2810978818841745,5.558131930211018 7.927100248974427,14.148368798802457 7.927100248974427,25.768529235315057 V140.80295960759705 H194.1451683158731 v-48.46350749352361 c0,-5.531955484699821 -1.0252441158552505,-9.44751545908317 -3.0691882361879523,-11.74013581177225 c-2.048306861251235,-2.296983093607615 -4.925534497023735,-3.4443839551817894 -8.631682907317503,-3.4443839551817894 c-4.09661372250247,0 -7.4144781910468005,1.5487730260792083 -9.95795614655153,4.646319078237624 c-2.547840696423261,3.097546052158417 -3.8173983037163595,8.657859352828702 -3.8173983037163595,16.678758531551583 V140.80295960759705 H134.89260253081738 V52.67123031231231 " style="fill:#00307c;fill-opacity:1;fill-rule:nonzero;stroke:none" id="path24" stroke-width="0"/>
        </g>
        <g id="g26" stroke-width="0">
          <path d="m346.09462055502627,105.11891721892431 h-67.71846453746893 c0.6064209876760847,5.422886961736496 2.074483306762432,9.46060368183877 4.397642845881245,12.11969427168462 c3.2676929479812027,3.8152169332570924 7.525728084469393,5.723916085115271 12.782830891301636,5.723916085115271 c3.3200458390035985,0 6.469944782184411,-0.8289207745212664 9.456240940920235,-2.4889436940230656 c1.830169815324586,-1.0536019318257153 3.7934032286644275,-2.903404081283699 5.894062980938057,-5.560313300670284 l33.27898772656958,3.0691882361879523 c-5.091318651927988,8.85200132370342 -11.229695124303893,15.199789360168905 -18.423854898964777,19.045545479855722 c-7.191978404201622,3.8457561196868224 -17.509860676532117,5.767543494300601 -30.95582818745077,5.767543494300601 c-11.672513327534991,0 -20.856082961046916,-1.6447533262869343 -27.550708900535774,-4.938622719779335 c-6.694625939488859,-3.289506652573867 -12.239669646944279,-8.518251643435645 -16.637312492825522,-15.6818722316668 c-4.3998242163405115,-7.1658019586904205 -6.596464268821869,-15.58807330191834 -6.596464268821869,-25.271176770602295 c0,-13.775354450267887 4.410731068636844,-24.922157497119656 13.234374576369797,-33.442590511014565 c8.825824878192222,-8.518251643435645 21.008778893195572,-12.782830891301636 36.55758752684712,-12.782830891301636 c12.612683995478848,0 22.57064014203038,1.9108805223174457 29.87386843965459,5.7282788260338044 c7.30322829762421,3.8152169332570924 12.86136022783523,9.351535158875445 16.68093990201085,16.595866454099458 C344.18592140316815,80.25129398328635 346.09462055502627,89.68572121961391 346.09462055502627,101.30370028566726 zm-34.35876610390649,-16.17922469637956 c-0.6631366196170135,-6.531023155043872 -2.419139839326538,-11.205700049251963 -5.268009659128575,-14.028393423542802 c-2.848869819802037,-2.8205120038315727 -6.598645639281134,-4.231858690976992 -11.24496471751876,-4.231858690976992 c-5.3683527002548335,0 -9.65692702317275,2.131198938703361 -12.863541598294493,6.391415445650818 c-2.0461254907919684,2.65472784892732 -3.3462222845147966,6.611733862036734 -3.9024717516277514,11.868836668868976 h33.27898772656958 " style="fill:#00307c;fill-opacity:1;fill-rule:nonzero;stroke:none" id="path28" stroke-width="0"/>
        </g>
        <g id="g30" stroke-width="0">
          <path d="M402.36090402793593,19.145440968624833 V52.67092355709152 H420.9483617113457 V77.40112045379571 H402.36090402793593 v31.22631812439981 c0,3.754138560397631 0.35774475531970473,6.238719513502165 1.077597006877647,7.453742859313596 c1.1059548228481115,1.8759785949691818 3.0430117906767546,2.816149262913039 5.808989533026665,2.816149262913039 c2.4889436940230656,0 5.9747736879309175,-0.7176708810986763 10.457489981723556,-2.1551940137552927 l2.4867623235638,23.31666883909952 c-8.352467488531392,1.8258070744060528 -16.153048250868363,2.739801296838712 -23.399560916551646,2.739801296838712 c-8.40918312047232,0 -14.606456595248419,-1.0797783773369132 -18.5918204243283,-3.232791020632939 c-3.9810010881613462,-2.1551940137552927 -6.925851208171107,-5.431612443573562 -8.836731730488555,-9.820529807617739 c-1.9086991518581793,-4.395461475421977 -2.8619580425576356,-11.506729172630738 -2.8619580425576356,-21.344709943922606 v-30.999455596636096 h-12.44908121103386 v-24.7301968967042 h12.44908121103386 v-16.17922469637956 L402.36090402793593,19.145440968624833 " style="fill:#00307c;fill-opacity:1;fill-rule:nonzero;stroke:none" id="path32" stroke-width="0"/>
        </g>
        <g id="g34" stroke-width="0">
          <path d="M6.521999915552608,148.68028882199118 H15.450349205330332 L18.8903704195936,162.04336425545773 L22.308577929264196,148.68028882199118 h8.921805178399946 V170.6445079763455 H25.670069806993855 v-16.748562386248114 L21.388039595453726,170.6445079763455 H16.355617945925943 l-4.277667470621588,-16.748562386248114 v16.748562386248114 H6.521999915552608 z" style="fill:#00307c;fill-opacity:1;fill-rule:nonzero;stroke:none" id="path36" stroke-width="0"/>
        </g>
        <path d="m35.37912857517259,148.67963270665786 h6.096930433649841 v4.148966613524864 H35.37912857517259 zm0,6.053303024464511 h6.096930433649841 v15.910916129889785 H35.37912857517259 z" style="fill:#00307c;fill-opacity:1;fill-rule:nonzero;stroke:none" id="path38" stroke-width="0"/>
        <g id="g40" stroke-width="0">
          <path d="M57.239944858328926,164.40988172782122 L63.040208909518526,165.06865560651968 C62.72172882246559,166.2793162114126 62.19601854178238,167.32419266140127 61.46744080838739,168.2098290678634 C60.7366817045331,169.0911027334071 59.8052365184263,169.78041579853533 58.67310525006698,170.2712241518703 C57.53661124078917,170.7576697642867 56.09690673767324,171.00416462618384 54.34962899980083,171.00416462618384 c-1.6905621059315301,0 -3.0953646816991505,-0.15487730260792093 -4.220951838680659,-0.4733573896608285 c-1.123405786522243,-0.31411734613437486 -2.0897528999772983,-0.8245580336027337 -2.8968599699058992,-1.5269593214865433 c-0.8092884403878683,-0.7024012878838103 -1.4440672440344173,-1.5269593214865433 -1.9021550404803798,-2.475855471267466 c-0.46026916690522984,-0.9488961497809241 -0.6914944355874779,-2.2031841638591563 -0.6914944355874779,-3.769408153612496 c0,-1.6403905853684013 0.28139678924537737,-3.003747122409957 0.8398276268175991,-4.09006961112467 c0.407916275882834,-0.7983815880915361 0.968528483914322,-1.5138710987309452 1.6796552536351976,-2.15083127283676 c0.706764028802343,-0.6304160627280161 1.4375231326566176,-1.1037734523888443 2.1857332001850236,-1.4135280576046865 c1.1888469003002375,-0.4864456124164277 2.711443480868248,-0.7329404743135415 4.569971112163299,-0.7329404743135415 c2.595830846527124,0 4.5786965940003626,0.4624505373644962 5.939871760582654,1.393895723471288 C61.21876457603099,156.69219304293637 62.174204837189684,158.05118683905943 62.72391019292488,159.83991061565794 l-5.73700430787087,0.7634796607432723 c-0.18105374811911884,-0.6805875832911453 -0.5082593170090923,-1.1910282707595037 -0.981616706669921,-1.53568480332361 c-0.4755387601200951,-0.3402937916455728 -1.1124989342259106,-0.5169847988461584 -1.9108805223174457,-0.5169847988461584 c-1.0099745226403856,0 -1.8258070744060528,0.3599261257789712 -2.4496790257562693,1.084141118255446 c-0.6238719513502164,0.7285777333950081 -0.9358079270253247,1.8170815925689865 -0.9358079270253247,3.2829625411960683 c0,1.3088222755598948 0.3075732347565753,2.3013458345261477 0.929263815647525,2.975389306439493 c0.6173278399724172,0.678406212831879 1.406983946226887,1.0208813749367174 2.364605577844876,1.0208813749367174 c0.7983815880915361,0 1.4724250600048818,-0.20723019363031678 2.0155863043622375,-0.6151464695131507 C56.563720015956314,165.88666952874462 56.9694549213799,165.25843483647589 57.239944858328926,164.40988172782122 " style="fill:#00307c;fill-opacity:1;fill-rule:nonzero;stroke:none" id="path42" stroke-width="0"/>
        </g>
        <g id="g44" stroke-width="0">
          <path d="m65.90151935772109,154.73337882199675 h5.7086464919004065 v2.60455632836419 c0.5475239852758896,-1.1277685274407758 1.1168616751444433,-1.9043364109396463 1.6992875877685962,-2.327522280037346 c0.5846072830834197,-0.425367239556966 1.306640905100628,-0.6369601741058156 2.1661008660516257,-0.6369601741058156 c0.8987246292177942,0 1.8825227063469814,0.2770340483268445 2.951394231387561,0.8376462563583328 L76.54006308756371,159.55638890743498 c-0.7198522515579424,-0.29666638246024296 -1.2891899414264962,-0.44936231460889725 -1.7080130696056621,-0.44936231460889725 c-0.8005629585508026,0 -1.420072168982486,0.33156830980850677 -1.8585276312950503,0.9881608180477205 C72.343106323935,161.02445122652134 72.02898897780062,162.76300348255668 72.02898897780062,165.31302554943923 V170.6442949518865 H65.90151935772109 V154.73337882199675 " style="fill:#00307c;fill-opacity:1;fill-rule:nonzero;stroke:none" id="path46" stroke-width="0"/>
        </g>
        <g id="g48" stroke-width="0">
          <path d="M79.20701041887514,162.73457749875934 C79.20701041887514,160.30671217759576 80.02502434110008,158.3042140959891 81.6632335560092,156.7336273653172 C83.30144277091837,155.1586778937268 85.51553378707382,154.37338452839086 88.30114386355714,154.37338452839086 C91.49030747500478,154.37338452839086 93.8963590915757,155.2961042326606 95.52148008372922,157.1459063821186 C96.83248372974839,158.63360103533833 97.48689486752835,160.4637708506629 97.48689486752835,162.64295993947016 C97.48689486752835,165.0926389652264 96.67542505668119,167.09731841729234 95.05248543498693,168.6591796661271 C93.42954581329265,170.22322228542123 91.18273424024815,171.00633428029786 88.31641345677201,171.00633428029786 c-2.558747548719594,0 -4.624505373644961,-0.6500483968614144 -6.2016362156946325,-1.9523265610435094 C80.17553890278948,167.4485190612342 79.20701041887514,165.33913382712356 79.20701041887514,162.73457749875934 m6.1122000268647065,-0.015269593214865441 c0,1.420072168982486 0.28794090062317673,2.4671299894304006 0.8638227018695305,3.1455362022622815 c0.5737004307870873,0.6805875832911453 1.2957340528042958,1.0165186340181847 2.163919495592359,1.0165186340181847 c0.8790922950843957,0 1.598944546642337,-0.33156830980850677 2.163919495592359,-1.0012490408033188 c0.564974948950021,-0.66531799007628 0.8463717381953987,-1.74073362649466 0.8463717381953987,-3.217521427418075 c0,-1.3829888711749554 -0.2835781597046438,-2.4082329870302064 -0.8529158495731982,-3.080095088484285 C89.93499033754775,158.90627234274663 89.23040767920465,158.56815992156032 88.39276142284635,158.56815992156032 C87.50058090500637,158.56815992156032 86.76982180115206,158.91063508366517 86.18957725898717,159.59558540787486 C85.60933271682232,160.27835436162525 85.31921044573983,161.32104944115468 85.31921044573983,162.7193079055445 " style="fill:#00307c;fill-opacity:1;fill-rule:nonzero;stroke:none" id="path50" stroke-width="0"/>
        </g>
        <g id="g52" stroke-width="0">
          <path d="M98.08523796772245,154.73337882199675 H103.98584506003834 L106.53586712692088,164.75023197094848 L109.76211403617599,154.73337882199675 H115.27225581628313 L118.63811043493133,164.77640841645965 L121.205583465488,154.73337882199675 h5.859161053589794 L121.20122072456948,170.6442949518865 H115.77615239237366 L112.55208685357783,161.07026000616588 L109.43708983774526,170.6442949518865 H103.98584506003834 z" style="fill:#00307c;fill-opacity:1;fill-rule:nonzero;stroke:none" id="path54" stroke-width="0"/>
        </g>
        <g id="g56" stroke-width="0">
          <path d="m134.0468787863979,159.8875056053906 l-5.828621867160063,-0.6151464695131507 c0.2203184163859156,-1.0208813749367174 0.5366171329795569,-1.8214443334875197 0.9510775202401899,-2.4038702461116723 c0.4166417577199001,-0.5846072830834197 1.0121558930996521,-1.0928666000925122 1.7909051470577892,-1.5225965805680108 c0.5584308375722217,-0.30975460521584186 1.328454609693293,-0.5497053557351559 2.3078899459039475,-0.7176708810986763 C134.2453834981912,154.45589316181704 135.30552954139472,154.37300108436492 136.44638629159107,154.37300108436492 C138.27219336599714,154.37300108436492 139.74025568508347,154.47552549595042 140.85057324885014,154.67839294866224 C141.95870944215753,154.88562314229253 142.88142914642728,155.3109903818495 143.62091373211854,155.96103877871096 C144.14007990142397,156.4104010933198 144.5501775477661,157.0473612674256 144.84902530068558,157.87191930102838 C145.15005442406436,158.6942959641718 145.29838761529447,159.48613344088557 145.29838761529447,160.22998076749548 v7.028375619756632 c0,0.750391437987673 0.04799015010386284,1.337180091530359 0.14178907985232203,1.7625473310873248 c0.09598030020772569,0.4231858690976996 0.3032104938380422,0.9619843725365224 0.6238719513502164,1.6251209921535357 H140.3379511909225 C140.11108866315877,170.23592706415084 139.96057410146943,169.92617245893496 139.8885888763136,169.7080354130083 C139.81878502161712,169.49426110800025 139.75116253737983,169.1583300572732 139.67917731222403,168.698060890368 C138.8807957241325,169.46808466248902 138.08895824741873,170.01560864776488 137.29712077070502,170.34499558711417 C136.21952376382737,170.78563241988596 134.96523574974913,171.00595083627186 133.53861946938883,171.00595083627186 c-1.8999736700211136,0 -3.339678173136997,-0.44063683277183147 -4.323476250266184,-1.319729127856227 c-0.9859794475884538,-0.8790922950843957 -1.4767878009234143,-1.963233413339842 -1.4767878009234143,-3.2524233547663375 c0,-1.2062978639743693 0.3555633848604381,-2.2031841638591563 1.0645087841220475,-2.981933417817292 c0.7089453992616098,-0.778749253958137 2.017767674821504,-1.3589937961230238 3.9264668266796834,-1.738552256035393 c2.2860762413112825,-0.4559064259866967 3.7715895240717625,-0.7809306244174041 4.449995736903641,-0.9641657429957894 c0.678406212831879,-0.18541648903765187 1.3960770939305542,-0.4275486100162323 2.1551940137552927,-0.7242149924764756 c0,-0.7525728084469395 -0.1526959321486545,-1.2761017186708972 -0.4624505373644962,-1.5771308420496732 C138.5601342666203,158.14895334935522 138.01697302226293,157.9984387876658 137.23822376830483,157.9984387876658 C136.23915609796074,157.9984387876658 135.4887646599731,158.15767883119227 134.99141219526032,158.47834028870443 C134.60094688305165,158.72701652106085 134.28464816645797,159.1981925402624 134.0468787863979,159.8875056053906 M139.33452077965995,163.0941201805123 C138.49687452330159,163.39078656297255 137.62214496913572,163.65909512946237 136.71251348762158,163.88595765722604 C135.4734950667582,164.21970733749387 134.69038307188157,164.540368795006 134.36317750299153,164.8610302525182 c-0.3424751621048392,0.3293869393492402 -0.510440687468359,0.7024012878838103 -0.510440687468359,1.1212244160629763 c0,0.4820828714978947 0.16578415490425336,0.8769109246251295 0.5017152056312931,1.1801214184631716 c0.33374968026777313,0.3032104938380422 0.8245580336027337,0.4537250555274301 1.4746064304641477,0.4537250555274301 c0.6762248423726122,0 1.311003646019161,-0.1592400435264539 1.897792299561847,-0.49517109425349376 c0.5824259126241534,-0.3250241984307072 0.9968862998847862,-0.7285777333950081 1.2411997913226334,-1.2041164935151034 c0.24431349143784709,-0.4733573896608285 0.36647023715677085,-1.0885038591739795 0.36647023715677085,-1.8498021494579844 v-0.9728912248328551 " style="fill:#00307c;fill-opacity:1;fill-rule:nonzero;stroke:none" id="path58" stroke-width="0"/>
        </g>
        <g id="g60" stroke-width="0">
          <path d="M146.6344774210161,154.73337882199675 H152.97790271656305 L156.0667232868844,164.820035825645 L159.2689751210876,154.73337882199675 H165.4248025571376 L158.66037276295225,170.6442949518865 h-5.409798738980896 z" style="fill:#00307c;fill-opacity:1;fill-rule:nonzero;stroke:none" id="path62" stroke-width="0"/>
        </g>
        <g id="g64" stroke-width="0">
          <path d="m184.04804635254044,164.2011177580869 h-12.226581424188678 c0.10906852296332466,0.9794353362106544 0.37301434853457,1.7080130696056621 0.7940188471730029,2.1879145706442897 c0.5889700240019525,0.6893130651282113 1.3568124256637577,1.0339695976923167 2.3057085754446804,1.0339695976923167 c0.5998768762982851,0 1.1713959366261057,-0.15051456168938795 1.7101944400649285,-0.44936231460889725 c0.32720556888997376,-0.19196060041545135 0.6849503242096783,-0.5257102806832245 1.0623274136627812,-1.0056117817218526 l6.009675615279182,0.5540680966536891 c-0.9205383338104597,1.598944546642337 -2.02649315665857,2.7441640377572454 -3.328771320840664,3.437839843803989 c-1.297915423263562,0.6958571765060106 -3.158624425017878,1.0448764499886491 -5.586489746181482,1.0448764499886491 c-2.10720386365143,0 -3.767226783153229,-0.3010291233787759 -4.975706017586865,-0.8943618882992614 c-1.2084792344336357,-0.5955141353797521 -2.2097282752369543,-1.5378661737828763 -3.003747122409957,-2.831418856127905 c-0.7962002176322698,-1.2913713118857624 -1.1910282707595037,-2.8117865219945064 -1.1910282707595037,-4.561245630326232 c0,-2.491125064482332 0.7940188471730029,-4.502348627926036 2.3886006528968076,-6.040214801708914 c1.5945818057238048,-1.5378661737828763 3.7934032286644275,-2.3057085754446804 6.6008270097404,-2.3057085754446804 c2.2773507594742166,0 4.076981388369072,0.3424751621048392 5.39452914576603,1.0339695976923167 C181.3213332784573,156.09296376099337 182.32476368971987,157.09421280179671 183.01189538438888,158.40303507735658 C183.7033898199763,159.70749461199796 184.04804635254044,161.41550768160357 184.04804635254044,163.5118046929587 zM177.84422876638658,161.28026271312908 C177.72425339112687,160.1045040355844 177.40795467453322,159.25595092692976 176.89315124614635,158.74769160992065 C176.37834781775945,158.235069551993 175.70212297538686,157.9820305787181 174.86229534856923,157.9820305787181 C173.89158549419562,157.9820305787181 173.11938035161526,158.36595177954905 172.54131717990967,159.1359755516701 C172.1704842018344,159.6136956822495 171.9348961922336,160.32918519288884 171.83673452156663,161.28026271312908 h6.007494244819914 " style="fill:#00307c;fill-opacity:1;fill-rule:nonzero;stroke:none" id="path66" stroke-width="0"/>
        </g>
        <g id="g68" stroke-width="0">
          <path d="M197.57929341253447,170.64404251790268 V148.6776419930891 H208.8918806142905 C210.98817762564553,148.6776419930891 212.59366628366573,148.85869574120827 213.6996211065138,149.21862186698723 C214.8099386702805,149.5741852518476 215.70430055857972,150.24168461238318 216.38488814187087,151.21675720767533 C217.06329435470278,152.1896484325082 217.4014067758891,153.37631396234914 217.4014067758891,154.7767537971982 C217.4014067758891,155.99395851346893 217.14182369123637,157.04537907483538 216.62047615147165,157.92883411083827 C216.10567272308475,158.8144705173005 215.38800184198612,159.52996002793992 214.478370360472,160.08184675413432 C213.89812581830702,160.42868465715765 213.1041069711341,160.7166255577809 212.09631381895292,160.9478508264631 C212.90342088888156,161.22052213387144 213.49457228334276,161.4888307003612 213.86322389095875,161.75932063731025 C214.11408149377442,161.94037438542938 214.47400761955342,162.32429558626026 214.94736500921428,162.9132656102622 C215.42290376933445,163.50659837518273 215.739202485928,163.95814206025088 215.89844252945448,164.27880351776307 L219.18358644110972,170.64404251790268 H211.51606927678807 L207.88845020302793,163.93196561473968 C207.42818103612262,163.0615988014923 207.01808338978054,162.4966238525423 206.6581572640016,162.23704076788962 C206.16953028112587,161.8967469762441 205.61546218447225,161.7266000804212 204.99813434449982,161.7266000804212 H204.39607609774228 V170.64404251790268 zm6.8167826852077855,-13.06640905100628 h2.8619580425576356 c0.3119359756751083,0 0.9096314815141269,-0.10034304112625866 1.7996306288948547,-0.2988477529195094 c0.4471809441496307,-0.08943618882992621 0.8158325517656683,-0.31848008705290787 1.1015920819295784,-0.6893130651282113 c0.28139678924537737,-0.3686516076160372 0.425367239556966,-0.7983815880915361 0.425367239556966,-1.2739203482116304 c0,-0.7089453992616098 -0.22468115730444851,-1.2542880140782326 -0.6762248423726122,-1.6338464739906013 c-0.4471809441496307,-0.3817398303716359 -1.2891899414264962,-0.5671563194092878 -2.528208362289863,-0.5671563194092878 H204.39607609774228 V157.5776334668964 " style="fill:#00307c;fill-opacity:1;fill-rule:nonzero;stroke:none" id="path70" stroke-width="0"/>
        </g>
        <g id="g72" stroke-width="0">
          <path d="m226.51124358484037,159.8875056053906 l-5.828621867160063,-0.6151464695131507 c0.2203184163859156,-1.0208813749367174 0.5387985034388236,-1.8214443334875197 0.9554402611587232,-2.4038702461116723 c0.4122790168013669,-0.5846072830834197 1.0077931521811185,-1.0928666000925122 1.7843610356799897,-1.5225965805680108 c0.560612208031488,-0.30975460521584186 1.328454609693293,-0.5497053557351559 2.310071316363213,-0.7176708810986763 c0.9794353362106544,-0.1723282662820529 2.0352186384956354,-0.2552203437341796 3.17607538869201,-0.2552203437341796 c1.8279884448653192,0 3.2960507639516687,0.10252441158552515 4.404186957259046,0.3053918642973088 C234.42525561105924,154.88562314229253 235.34579394486968,155.3109903818495 236.0830971601018,155.96103877871096 C236.60444469986638,156.4104010933198 237.01672371666783,157.0473612674256 237.31775284004658,157.87191930102838 C237.61660059296608,158.6942959641718 237.76493378419622,159.48613344088557 237.76493378419622,160.22998076749548 v7.028375619756632 c0,0.750391437987673 0.04580877964459635,1.337180091530359 0.14178907985232203,1.7625473310873248 c0.09816167066699212,0.4231858690976996 0.3053918642973088,0.9619843725365224 0.6216905808909501,1.6251209921535357 H232.80449735982418 C232.5776348320605,170.23592706415084 232.42493889991184,169.92617245893496 232.3573164156746,169.7080354130083 C232.28751256097806,169.49426110800025 232.2155273358223,169.1583300572732 232.14572348112574,168.698060890368 C231.3451605225749,169.46808466248902 230.5511416754019,170.01560864776488 229.76366693960676,170.34499558711417 C228.68606993272905,170.78563241988596 227.4317819186508,171.00595083627186 226.0029842678313,171.00595083627186 c-1.8999736700211136,0 -3.337496802677731,-0.44063683277183147 -4.325657620725452,-1.319729127856227 c-0.981616706669921,-0.8790922950843957 -1.4746064304641477,-1.963233413339842 -1.4746064304641477,-3.2524233547663375 c0,-1.2062978639743693 0.35338201440117173,-2.2031841638591563 1.0623274136627812,-2.981933417817292 c0.7111267697208762,-0.778749253958137 2.0199490452807702,-1.3589937961230238 3.92864819713895,-1.738552256035393 c2.2860762413112825,-0.4559064259866967 3.7715895240717625,-0.7809306244174041 4.452177107362908,-0.9641657429957894 c0.6740434719133458,-0.18541648903765187 1.3960770939305542,-0.4275486100162323 2.1551940137552927,-0.7242149924764756 c0,-0.7525728084469395 -0.15705867306718743,-1.2761017186708972 -0.464631907823763,-1.5771308420496732 C231.02886180598128,158.14895334935522 230.4835191911647,157.9984387876658 229.70258856674727,157.9984387876658 C228.70352089640323,157.9984387876658 227.9553108288748,158.15767883119227 227.45359562324347,158.47834028870443 C227.06531168149408,158.72701652106085 226.75119433535963,159.1981925402624 226.51124358484037,159.8875056053906 M231.80106694856156,163.0941201805123 C230.96342069220327,163.39078656297255 230.08650976757815,163.65909512946237 229.17905965652332,163.88595765722604 C227.9378598652006,164.21970733749387 227.15256649986478,164.540368795006 226.82536093097477,164.8610302525182 c-0.33811242118630624,0.3293869393492402 -0.5082593170090923,0.7024012878838103 -0.5082593170090923,1.1212244160629763 c0,0.4820828714978947 0.1679655253635199,0.8769109246251295 0.5017152056312931,1.1801214184631716 c0.33374968026777313,0.3032104938380422 0.826739404062,0.4537250555274301 1.4724250600048818,0.4537250555274301 c0.6827689537504118,0 1.313185016478428,-0.1592400435264539 1.897792299561847,-0.49517109425349376 c0.5846072830834197,-0.3250241984307072 1.0012490408033188,-0.7285777333950081 1.2455625322411665,-1.2041164935151034 c0.24213212097858075,-0.4733573896608285 0.36647023715677085,-1.0885038591739795 0.36647023715677085,-1.8498021494579844 v-0.9728912248328551 " style="fill:#00307c;fill-opacity:1;fill-rule:nonzero;stroke:none" id="path74" stroke-width="0"/>
        </g>
        <g id="g76" stroke-width="0">
          <path d="m258.1742671756228,148.68028882199118 v21.964219154354293 h-5.713009232818939 v-2.3493359846300104 c-0.7983815880915361,0.99470492942552 -1.5291406919458101,1.6709297717981317 -2.1857332001850236,2.0199490452807702 c-0.8812736655436626,0.4580877964459632 -1.8585276312950503,0.6914944355874779 -2.936124638172697,0.6914944355874779 c-2.1661008660516257,0 -3.8217610446348913,-0.826739404062 -4.9669805357498,-2.471492730348934 c-1.145219491114908,-1.6534788081240004 -1.714557180983462,-3.6516141488121048 -1.714557180983462,-6.009675615279182 c0,-2.6372768852531867 0.6282346922687498,-4.652863189615425 1.8956109291025807,-6.053303024464511 c1.2630134959152979,-1.4026212053083538 2.868502153935435,-2.098478381814364 4.816465974060413,-2.098478381814364 c0.9467147793216574,0 1.8061747402726545,0.15705867306718743 2.5805612533122586,0.4799015010386282 c0.7765678834988713,0.31848008705290787 1.4615182077085491,0.7983815880915361 2.0613950840068336,1.4375231326566176 l0,-7.610801532380785 zm-6.1122000268647065,13.96077093930554 c0,-1.247743902700433 -0.27048993694904505,-2.1770077183479573 -0.7962002176322698,-2.792154187861108 c-0.5300730216017576,-0.6151464695131507 -1.1997537525965705,-0.9205383338104597 -2.0112235634437043,-0.9205383338104597 c-0.7089453992616098,0 -1.3022781641820953,0.29448501200097643 -1.7821796652207231,0.8834550360029289 c-0.4799015010386282,0.5889700240019525 -0.7198522515579424,1.5793122125089394 -0.7198522515579424,2.9666638246024273 c0,1.297915423263562 0.24867623235638006,2.2489929435037515 0.7438473266098737,2.855413931179836 c0.4929897237942271,0.604239617216818 1.1059548228481115,0.9074501110548606 1.8345325562431185,0.9074501110548606 c0.7809306244174041,0 1.4287976508195521,-0.3075732347565753 1.950145190584242,-0.9161755928919265 c0.519166169305425,-0.6086023581353509 0.7809306244174041,-1.6033072875608712 0.7809306244174041,-2.9841147882765595 " style="fill:#00307c;fill-opacity:1;fill-rule:nonzero;stroke:none" id="path78" stroke-width="0"/>
        </g>
        <g id="g80" stroke-width="0">
          <path d="m267.44815385410226,159.8875056053906 l-5.828621867160063,-0.6151464695131507 c0.2203184163859156,-1.0208813749367174 0.5387985034388236,-1.8214443334875197 0.9510775202401899,-2.4038702461116723 c0.4166417577199001,-0.5846072830834197 1.0143372635589185,-1.0928666000925122 1.7909051470577892,-1.5225965805680108 c0.5562494671129554,-0.30975460521584186 1.3262732392340266,-0.5497053557351559 2.3057085754446804,-0.7176708810986763 c0.981616706669921,-0.1723282662820529 2.0395813794141686,-0.2552203437341796 3.1782567591512763,-0.2552203437341796 c1.8279884448653192,0 3.2982321344109344,0.10252441158552515 4.406368327718311,0.3053918642973088 C275.3599845098618,154.88562314229253 276.28270421413157,155.3109903818495 277.0200074293637,155.96103877871096 C277.54353633958766,156.4104010933198 277.95145261547043,157.0473612674256 278.2524817388492,157.87191930102838 C278.553510862228,158.6942959641718 278.69748131253954,159.48613344088557 278.69748131253954,160.22998076749548 v7.028375619756632 c0,0.750391437987673 0.04799015010386284,1.337180091530359 0.146151820770855,1.7625473310873248 c0.09816167066699212,0.4231858690976996 0.3032104938380422,0.9619843725365224 0.6216905808909501,1.6251209921535357 H273.7392262586268 C273.5123637308631,170.23592706415084 273.35966779871444,169.92617245893496 273.2920453144772,169.7080354130083 C273.22442283024,169.49426110800025 273.1546189755435,169.1583300572732 273.08263375038763,168.698060890368 C272.2798894213775,169.46808466248902 271.4902333151231,170.01560864776488 270.70057720886865,170.34499558711417 C269.6207988315317,170.78563241988596 268.36869218791276,171.00595083627186 266.9377131666339,171.00595083627186 c-1.897792299561847,0 -3.337496802677731,-0.44063683277183147 -4.323476250266184,-1.319729127856227 c-0.9837980771291872,-0.8790922950843957 -1.4746064304641477,-1.963233413339842 -1.4746064304641477,-3.2524233547663375 c0,-1.2062978639743693 0.3555633848604381,-2.2031841638591563 1.0645087841220475,-2.981933417817292 c0.7089453992616098,-0.778749253958137 2.017767674821504,-1.3589937961230238 3.9264668266796834,-1.738552256035393 c2.2860762413112825,-0.4559064259866967 3.7715895240717625,-0.7809306244174041 4.447814366444375,-0.9641657429957894 c0.678406212831879,-0.18541648903765187 1.4004398348490874,-0.4275486100162323 2.1595567546738264,-0.7242149924764756 c0,-0.7525728084469395 -0.15705867306718743,-1.2761017186708972 -0.46681327828302915,-1.5771308420496732 C271.9635907047839,158.14895334935522 271.42042946042653,157.9984387876658 270.6394988360092,157.9984387876658 C269.63824979520587,157.9984387876658 268.8922210981367,158.15767883119227 268.39050589250536,158.47834028870443 C268.002221950756,158.72701652106085 267.6881046046215,159.1981925402624 267.44815385410226,159.8875056053906 M272.73797721782347,163.0941201805123 C271.90033096146516,163.39078656297255 271.02342003684004,163.65909512946237 270.11596992578524,163.88595765722604 C268.87258876400335,164.21970733749387 268.0916581395859,164.540368795006 267.7644525706959,164.8610302525182 C267.42197740859103,165.19041719186745 267.25183051276827,165.563431540402 267.25183051276827,165.98225466858116 c0,0.4820828714978947 0.17014689582278633,0.8769109246251295 0.5038965760905596,1.1801214184631716 c0.3359310507270399,0.3032104938380422 0.826739404062,0.4537250555274301 1.4746064304641477,0.4537250555274301 c0.678406212831879,0 1.313185016478428,-0.1592400435264539 1.893429558643314,-0.49517109425349376 c0.5867886535426863,-0.3250241984307072 1.0012490408033188,-0.7285777333950081 1.2455625322411665,-1.2041164935151034 c0.24431349143784709,-0.4733573896608285 0.3686516076160372,-1.0885038591739795 0.3686516076160372,-1.8498021494579844 v-0.9728912248328551 " style="fill:#00307c;fill-opacity:1;fill-rule:nonzero;stroke:none" id="path82" stroke-width="0"/>
        </g>
        <g id="g84" stroke-width="0">
          <path d="m282.41518576716817,154.73337882199675 h5.713009232818939 v2.60455632836419 c0.5497053557351559,-1.1277685274407758 1.114680304685177,-1.9043364109396463 1.6971062173093299,-2.327522280037346 c0.5846072830834197,-0.425367239556966 1.3088222755598948,-0.6369601741058156 2.1661008660516257,-0.6369601741058156 c0.8987246292177942,0 1.8825227063469814,0.2770340483268445 2.9492128609282955,0.8376462563583328 L293.05372949701086,159.55638890743498 c-0.7176708810986763,-0.29666638246024296 -1.2870085709672296,-0.44936231460889725 -1.7080130696056621,-0.44936231460889725 c-0.7983815880915361,0 -1.4178907985232192,0.33156830980850677 -1.8585276312950503,0.9881608180477205 C288.8589541038414,161.02445122652134 288.544836757707,162.76300348255668 288.544836757707,165.31302554943923 V170.6442949518865 H282.41518576716817 V154.73337882199675 " style="fill:#00307c;fill-opacity:1;fill-rule:nonzero;stroke:none" id="path86" stroke-width="0"/>
        </g>
        <g id="g88" stroke-width="0">
          <path d="m305.4303815931726,163.37897648697052 l6.459037929888079,-0.407916275882834 c0.1396077093930555,1.0492391909071819 0.425367239556966,1.851983519917251 0.8550972200324648,2.39950750519314 c0.6980385469652773,0.8878177769214622 1.6971062173093299,1.3306359801525594 2.9972030110321586,1.3306359801525594 c0.9663471134550555,0 1.714557180983462,-0.22468115730444851 2.2380860912074207,-0.6805875832911453 c0.5257102806832245,-0.4537250555274301 0.7896561062544701,-0.981616706669921 0.7896561062544701,-1.5793122125089394 c0,-0.5693376898685545 -0.253038973274913,-1.077597006877647 -0.7525728084469395,-1.5291406919458101 C317.5195366784275,162.4606195236193 316.3590475940978,162.0396150249809 314.5397846310695,161.64042423093508 C311.5665766950892,160.96856212948103 309.4419218677637,160.0829257230188 308.17236426047066,158.9704267887929 C306.89626254179973,157.8644719659448 306.25493962677535,156.44876253788084 306.25493962677535,154.73202398643815 c0,-1.1321312683593092 0.32720556888997376,-2.19445868202209 0.9837980771291872,-3.200070463743942 c0.6522297673206812,-1.0034304112625858 1.6360278444498682,-1.7909051470577892 2.951394231387561,-2.3689683187634087 c1.311003646019161,-0.5737004307870873 3.1128156453732827,-0.861641331410264 5.40107325714383,-0.861641331410264 c2.807423781075974,0 4.9473482016164,0.523528910223958 6.419773261621281,1.5662239897533405 C323.48558488452136,150.91462568272178 324.36031443868734,152.57464860222353 324.64171122793266,154.84981799123852 L318.243751670904,155.22501371023233 C318.07360477508126,154.23467152172535 317.7158600197616,153.51700064062672 317.1726987754042,153.06545695555852 C316.6273561605875,152.61827601140888 315.8769647225999,152.39577622456372 314.91716172052264,152.39577622456372 C314.1275056142681,152.39577622456372 313.5341728493476,152.56374174992723 313.13498205530186,152.89531005973572 C312.73360989079686,153.23124111046275 312.5351051790036,153.63479464542706 312.5351051790036,154.11469614646566 C312.5351051790036,154.4680781608668 312.70088933390787,154.78219550700123 313.0280949027978,155.05922955532807 C313.34875636031,155.3515331968698 314.10787328013475,155.62202313381883 315.305445662272,155.87069936617524 C318.27429085733365,156.50765954028105 320.3989456846593,157.1555265666832 321.68377288516734,157.81211907492238 C322.9664187152159,158.46434884224308 323.90004527178206,159.27800002354945 324.48683392532473,160.24652850746378 C325.06707846748964,161.21287562091885 325.3615634794906,162.2970167391743 325.3615634794906,163.49895186223017 C325.3615634794906,164.90375443799778 324.97109816728187,166.20166986126134 324.19234891332366,167.39487950248008 C323.4114182889063,168.57936366186183 322.3250958001916,169.4824510319981 320.9268373358018,170.09977887197053 C319.5263975009526,170.71274397102442 317.7638501698654,171.01813583532171 315.6370139720806,171.01813583532171 C311.89814500489774,171.01813583532171 309.31322101066695,170.29828358376375 307.87351650755113,168.86076045110715 C306.4338120044352,167.4232373184506 305.6223421935881,165.59743024404452 305.4303815931726,163.37897648697052 " style="fill:#00307c;fill-opacity:1;fill-rule:nonzero;stroke:none" id="path90" stroke-width="0"/>
        </g>
        <g id="g92" stroke-width="0">
          <path d="m346.0392341957089,164.2011177580869 h-12.224400053729413 c0.10470578204479161,0.9794353362106544 0.3686516076160372,1.7080130696056621 0.7874747357952033,2.1879145706442897 c0.5933327649204858,0.6893130651282113 1.363356537041557,1.0339695976923167 2.310071316363213,1.0339695976923167 c0.5998768762982851,0 1.169214566166839,-0.15051456168938795 1.7080130696056621,-0.44936231460889725 c0.3293869393492402,-0.19196060041545135 0.6849503242096783,-0.5257102806832245 1.0645087841220475,-1.0056117817218526 l6.005312874360648,0.5540680966536891 c-0.9139942224326597,1.598944546642337 -2.02649315665857,2.7441640377572454 -3.3244085799221317,3.437839843803989 c-1.2957340528042958,0.6958571765060106 -3.1629871659364106,1.0448764499886491 -5.590852487100015,1.0448764499886491 c-2.105022493192164,0 -3.7650454126939628,-0.3010291233787759 -4.9735246471276,-0.8943618882992614 c-1.2084792344336357,-0.5955141353797521 -2.2097282752369543,-1.5378661737828763 -3.0015657519506913,-2.831418856127905 c-0.7962002176322698,-1.2913713118857624 -1.195391011678037,-2.8117865219945064 -1.195391011678037,-4.561245630326232 c0,-2.491125064482332 0.8005629585508026,-4.502348627926036 2.3929633938153403,-6.040214801708914 c1.592400435264538,-1.5378661737828763 3.791221858205161,-2.3057085754446804 6.598645639281134,-2.3057085754446804 c2.2773507594742166,0 4.074800017909805,0.3424751621048392 5.396710516225297,1.0339695976923167 c1.3175477573969605,0.6871316946689446 2.3209781686595456,1.6883807354722637 3.0102912337877576,2.9972030110321586 C345.69021492222635,159.70749461199796 346.0392341957089,161.41550768160357 346.0392341957089,163.5118046929587 zM339.8332352390957,161.28026271312908 C339.713259863836,160.1045040355844 339.3969611472424,159.25595092692976 338.8821577188556,158.74769160992065 C338.3651729200094,158.235069551993 337.68894807763684,157.9820305787181 336.85348319173767,157.9820305787181 C335.88277333736414,157.9820305787181 335.11056819478375,158.36595177954905 334.53032365261885,159.1359755516701 C334.1573093040843,159.6136956822495 333.9282654058613,160.32918519288884 333.82355962381655,161.28026271312908 h6.009675615279182 " style="fill:#00307c;fill-opacity:1;fill-rule:nonzero;stroke:none" id="path94" stroke-width="0"/>
        </g>
        <g id="g96" stroke-width="0">
          <path d="m348.8383423007506,154.73337882199675 h5.680288675929941 v2.593649476067858 c0.848553108654665,-1.0623274136627812 1.7101944400649285,-1.8192629630282537 2.576198512393725,-2.272988018555683 c0.8703668132473302,-0.4537250555274301 1.9283314859915777,-0.6805875832911453 3.17607538869201,-0.6805875832911453 c1.6905621059315301,0 3.0102912337877576,0.5017152056312931 3.9635501244872136,1.505145616893879 c0.957621631617989,1.0056117817218526 1.430979021278818,2.552203437341794 1.430979021278818,4.6506818191561585 V170.6442949518865 H359.53796440345275 v-8.747295541658627 c0,-1.0012490408033188 -0.18541648903765187,-1.7080130696056621 -0.5562494671129554,-2.1224734568662953 c-0.3686516076160372,-0.4166417577199001 -0.8878177769214622,-0.6260533218094833 -1.5553171374570078,-0.6260533218094833 c-0.7394845856913407,0 -1.3393614619896257,0.2835781597046438 -1.7974492584355883,0.8420089972768655 C355.1664980030827,160.55109383686047 354.9352727344004,161.55452424812304 354.9352727344004,163.00295423307597 V170.6442949518865 L348.8383423007506,170.6442949518865 V154.73337882199675 " style="fill:#00307c;fill-opacity:1;fill-rule:nonzero;stroke:none" id="path98" stroke-width="0"/>
        </g>
        <g id="g100" stroke-width="0">
          <path d="m368.2289935284982,166.22285301345562 l6.051121654005246,-0.5671563194092878 c0.2508576028156466,0.722033622017209 0.5998768762982851,1.234655679944834 1.0514205613664485,1.5422289147014094 c0.44936231460889725,0.3075732347565753 1.0492391909071819,0.4624505373644962 1.7996306288948547,0.4624505373644962 c0.8158325517656683,0 1.4527927258714832,-0.17014689582278633 1.9021550404803798,-0.519166169305425 c0.3468379030233724,-0.26176445511197893 0.523528910223958,-0.5846072830834197 0.523528910223958,-0.9728912248328551 c0,-0.44063683277183147 -0.23122526868224808,-0.778749253958137 -0.6893130651282113,-1.0187000044774515 C378.53815031899165,164.98165322213296 377.6634207648258,164.77224165804338 376.2455299663026,164.52356542568702 C374.12741925035476,164.15273244761173 372.65499419034995,163.8080759150476 371.8347988976657,163.4961399393725 C371.0080594936037,163.1820225932381 370.3122023170977,162.64976820117712 369.7515901090663,161.903739504108 C369.18225241919765,161.15334806612026 368.90303700041153,160.3004322165471 368.90303700041153,159.34281058492908 c0,-1.0492391909071819 0.3032104938380422,-1.9479638201249763 0.9161755928919265,-2.7092621104089813 c0.6086023581353509,-0.7569355493654728 1.4462486144936837,-1.3219104983154937 2.515120139534263,-1.6949248468500637 c1.0666901545813143,-0.37955845991236936 2.5020319167786638,-0.564974948950021 4.297299804754986,-0.564974948950021 c1.8999736700211136,0 3.304776245788734,0.146151820770855 4.203500875006528,0.4362740918532983 C381.7404021531949,155.09568230073725 382.4951563321011,155.54504461534614 383.10157731977716,156.1536469734815 C383.7036355665348,156.76661207253537 384.205350772166,157.5889887356788 384.60454156621176,158.62950244474897 L378.82390984915554,159.19665876415823 C378.6690325465476,158.68839944714915 378.4203563141912,158.3110223576961 378.0735184111679,158.07325297763597 C377.5914355396701,157.75695426104235 377.01337236796445,157.59117010613812 376.3327847846732,157.59117010613812 C375.64565309000426,157.59117010613812 375.14393788437303,157.7176895927756 374.8320019086979,157.9620030842134 C374.5113404511858,158.2063165756513 374.35646314857786,158.50080158765226 374.35646314857786,158.85200223159413 C374.35646314857786,159.23592343242504 374.55714923083036,159.53477118534457 374.9563400248761,159.7354572675971 C375.35553081892186,159.93178060893104 376.22589763216916,160.1128343570502 377.5652590941589,160.27207440057666 C379.5917522508174,160.50329966925884 381.0990792381705,160.81959838585254 382.085058685759,161.2296960321946 C383.07758224472525,161.63761230807742 383.83451779409063,162.22440096162015 384.360228074774,162.98569925190412 C384.88157561453863,163.7426348012696 385.14334006965066,164.57373694625016 385.14334006965066,165.48336842776425 C385.14334006965066,166.39954402065618 384.8663060213238,167.29390590895545 384.31223792467006,168.1599099812843 C383.76035119847575,169.03027679453157 382.88562164430977,169.72177123011906 381.69023063263177,170.23657465850596 C380.49702099141297,170.74701534597432 378.8718999992594,171.00659843062704 376.81486765617115,171.00659843062704 c-2.9055854517429656,0 -4.975706017586865,-0.4166417577199001 -6.212543067990965,-1.2433811617819 C369.3698502786945,168.9321151238646 368.57801280198083,167.75417507586067 368.2289935284982,166.22285301345562 " style="fill:#00307c;fill-opacity:1;fill-rule:nonzero;stroke:none" id="path102" stroke-width="0"/>
        </g>
        <g id="g104" stroke-width="0">
          <path d="M387.30223831246576,162.73457749875934 C387.30223831246576,160.30671217759576 388.1224336051499,158.3042140959891 389.76064282005916,156.7336273653172 C391.40103340542754,155.1586778937268 393.61294305112375,154.37338452839086 396.39855312760704,154.37338452839086 C399.58335399813615,154.37338452839086 401.9915869851663,155.2961042326606 403.6210707182384,157.1459063821186 C404.92771162333895,158.63360103533833 405.5799413906597,160.4637708506629 405.5799413906597,162.64295993947016 C405.5799413906597,165.0926389652264 404.77065295027194,167.09731841729234 403.1477133285776,168.6591796661271 C401.5247737068833,170.22322228542123 399.2801435042981,171.00633428029786 396.413822720822,171.00633428029786 C393.8550751721024,171.00633428029786 391.7871359767177,170.35628588343647 390.2100051346681,169.05400771925437 C388.2751295372987,167.4485190612342 387.30223831246576,165.33913382712356 387.30223831246576,162.73457749875934 m6.1122000268647065,-0.015269593214865441 c0,1.420072168982486 0.2901222710824433,2.4671299894304006 0.8638227018695305,3.1455362022622815 c0.5758818012463537,0.6805875832911453 1.2957340528042958,1.0165186340181847 2.1661008660516257,1.0165186340181847 c0.8790922950843957,0 1.598944546642337,-0.33156830980850677 2.161738125133092,-1.0012490408033188 c0.5693376898685545,-0.66531799007628 0.8463717381953987,-1.74073362649466 0.8463717381953987,-3.217521427418075 c0,-1.3829888711749554 -0.2835781597046438,-2.4082329870302064 -0.848553108654665,-3.080095088484285 C398.0323996015977,158.90627234274663 397.32781694325456,158.56815992156032 396.48798931643705,158.56815992156032 C395.60017153951554,158.56815992156032 394.8650496947427,158.91063508366517 394.28698652303706,159.59558540787486 C393.7067419808722,160.27835436162525 393.41443833933056,161.32104944115468 393.41443833933056,162.7193079055445 " style="fill:#00307c;fill-opacity:1;fill-rule:nonzero;stroke:none" id="path106" stroke-width="0"/>
        </g>
        <g id="g108" stroke-width="0">
          <path d="m408.57692445393803,154.73337882199675 h5.713009232818939 v2.60455632836419 c0.5497053557351559,-1.1277685274407758 1.1168616751444433,-1.9043364109396463 1.6949248468500637,-2.327522280037346 c0.5889700240019525,-0.425367239556966 1.313185016478428,-0.6369601741058156 2.1704636069701584,-0.6369601741058156 c0.8987246292177942,0 1.8825227063469814,0.2770340483268445 2.9470314904690285,0.8376462563583328 L419.21764955424004,159.55638890743498 c-0.7176708810986763,-0.29666638246024296 -1.2891899414264962,-0.44936231460889725 -1.7101944400649285,-0.44936231460889725 c-0.7983815880915361,0 -1.4178907985232192,0.33156830980850677 -1.8585276312950503,0.9881608180477205 C415.02505553152986,161.02445122652134 414.7065754444769,162.76300348255668 414.7065754444769,165.31302554943923 V170.6442949518865 H408.57692445393803 V154.73337882199675 " style="fill:#00307c;fill-opacity:1;fill-rule:nonzero;stroke:none" id="path110" stroke-width="0"/>
        </g>
      </g>
    </g>
  </g></g></svg>